:SAMPLES-PER-SECOND 30
:FULLY-SPECIFIED
:DEGREES
224
root  2.5522 28.2521 -7.0636 15.6946 -43.0089 3.79212
RightUpLeg  -59.2073 0.695116 -12.3034
RightLeg  69.1976 0.354343 0.61774
RightFoot  -10.6227 -0.0200039 0.162387
RightToes  -41.2759 -0.228755 -0.322216
Spine  20.2962 -2.38358 -0.81984
Spine1  32.6125 -4.83063 -2.02428
HEad  18.5521 -21.3422 22.2284
LeftShoulder1  0 -2.42657e-020 -4.95415e-022
LeftArm  -15.458 -38.031 -99.7697
LeftForeArm  60.651 -32.7192 -6.45025
LeftHand  -1.18569 -9.29711 14.1451
RightShoulder  0 2.42657e-020 1.07489e-018
RightArm  -51.4187 40.4625 101.016
RightForeArm  35.4632 16.1188 2.91136
RightHand  -1.3432 20.9222 -6.89743
LeftUpLeg  -47.8474 8.65269 16.1385
LeftLeg  69.732 0.817299 1.82367
LeftFoot  -9.89795 -0.24633 -2.84417
LeftToes  -21.2616 2.01279e-006 2.21547e-008
225
root  1.11484 29.0044 -8.56393 21.4851 -46.9858 -1.87135
RightUpLeg  -62.3402 -5.89885 -2.36015
RightLeg  68.4434 8.15568 16.6214
RightFoot  -2.523 -0.0378387 -1.341
RightToes  -47.3157 -0.279401 -0.35261
Spine  21.9156 -2.76706 0.398757
Spine1  33.9298 -7.05734 1.51502
HEad  20.7504 -15.9114 19.0721
LeftShoulder1  0 -2.42657e-020 -4.95415e-022
LeftArm  -15.834 -47.1724 -100.706
LeftForeArm  62.9717 -17.2967 -3.09045
LeftHand  -0.378651 -9.52303 4.17655
RightShoulder  0 2.42657e-020 1.07489e-018
RightArm  -54.9879 46.3139 102.023
RightForeArm  39.9511 12.173 2.16788
RightHand  -1.24431 20.1945 -6.61111
LeftUpLeg  -54.0172 13.7457 8.21436
LeftLeg  72.0995 0.678384 1.69686
LeftFoot  -13.2267 -0.317246 -2.7358
LeftToes  -28.0613 2.01279e-006 2.21547e-008
226
root  -0.259373 29.5444 -9.81776 25.2981 -50.3487 -4.89216
RightUpLeg  -63.521 -7.06799 -0.556392
RightLeg  67.2478 9.50294 18.2591
RightFoot  1.14724 0.00553023 -0.174707
RightToes  -56.0534 -0.357675 -0.386777
Spine  22.978 -2.84471 0.830072
Spine1  35.0592 -7.4694 2.59014
HEad  21.446 -11.4884 16.2469
LeftShoulder1  0 -2.42657e-020 -4.95415e-022
LeftArm  -11.3169 -53.6835 -99.4884
LeftForeArm  65.0668 -9.2751 -1.59463
LeftHand  0.356499 -11.2253 -3.99882
RightShoulder  0 2.42657e-020 1.07489e-018
RightArm  -56.0643 49.6297 101.537
RightForeArm  38.9948 10.5201 1.86674
RightHand  -1.07723 19.3189 -5.95473
LeftUpLeg  -59.4259 15.4107 -1.21452
LeftLeg  70.2573 -2.40086 -5.53873
LeftFoot  -15.8487 0.01696 0.121835
LeftToes  -37.9946 2.01279e-006 2.21547e-008
227
root  -1.64125 29.5551 -10.8982 27.5038 -53.5523 -6.97173
RightUpLeg  -62.4075 -3.59332 -6.45171
RightLeg  65.6439 0.537424 0.882648
RightFoot  -3.55335 -0.0129485 -0.0398967
RightToes  -40.0275 -0.218703 -0.315278
Spine  23.457 -2.43366 1.26689
Spine1  35.6302 -6.5362 3.44829
HEad  20.7276 -9.52559 13.3154
LeftShoulder1  0 -2.42657e-020 -4.95415e-022
LeftArm  -6.52332 -56.7825 -100.424
LeftForeArm  73.0215 -5.27975 -0.862441
LeftHand  1.05204 -11.1136 -11.1587
RightShoulder  0 2.42657e-020 1.07489e-018
RightArm  -58.567 50.7151 97.5388
RightForeArm  38.4326 10.2364 1.81584
RightHand  -0.939507 19.7651 -5.02057
LeftUpLeg  -62.8816 14.7203 -8.57492
LeftLeg  69.4714 -7.59528 -16.3959
LeftFoot  -10.3436 0.224484 2.47979
LeftToes  -49.4888 2.01279e-006 2.21547e-008
228
root  -3.11157 29.0181 -11.8528 29.1607 -55.8754 -9.60328
RightUpLeg  -59.987 -4.43882 -11.9341
RightLeg  64.2217 -3.53012 -6.3318
RightFoot  -6.38341 0.0618241 1.48636
RightToes  -25.8808 -0.116609 -0.222342
Spine  23.6715 -1.66284 2.56656
Spine1  35.9245 -5.28441 5.7155
HEad  20.5897 -9.53165 9.09512
LeftShoulder1  0 -2.42657e-020 -4.95415e-022
LeftArm  -9.82474 -54.7085 -102.26
LeftForeArm  68.0926 -6.76715 -1.13872
LeftHand  0.616231 -9.11178 -8.09793
RightShoulder  0 2.42657e-020 1.07489e-018
RightArm  -63.8722 51.0224 88.3463
RightForeArm  38.2686 9.60925 1.70249
RightHand  -0.69176 19.6108 -3.63219
LeftUpLeg  -63.4887 10.6917 -10.2585
LeftLeg  71.5271 -11.2062 -25.53
LeftFoot  -5.05171 0.0964508 2.18617
LeftToes  -34.7757 2.01279e-006 2.21547e-008
229
root  -4.69475 28.0443 -12.6612 30.9252 -58.8679 -13.1187
RightUpLeg  -56.7565 -9.77506 -15.5956
RightLeg  59.3357 -3.16924 -4.70734
RightFoot  2.12171 -0.0119133 1.02056
RightToes  -32.0744 -0.158463 -0.266122
Spine  23.4539 -0.518407 3.95848
Spine1  35.9229 -3.47234 7.98245
HEad  21.1732 -8.82669 3.56597
LeftShoulder1  0 -2.42657e-020 -4.95415e-022
LeftArm  -16.3682 -49.8853 -103.923
LeftForeArm  63.1697 -9.07199 -1.56254
LeftHand  0.110227 -9.74714 -1.66382
RightShoulder  0 2.42657e-020 1.07489e-018
RightArm  -69.8894 49.765 77.3165
RightForeArm  37.3102 8.47294 1.49891
RightHand  -0.593933 18.9409 -3.19043
LeftUpLeg  -61.8842 5.38881 -6.74255
LeftLeg  73.7837 -4.55724 -12.3996
LeftFoot  -19.4681 0.681098 3.96883
LeftToes  20.5503 2.01279e-006 2.21547e-008
230
root  -6.34327 27.0025 -13.7156 34.4946 -63.006 -17.518
RightUpLeg  -54.8783 -9.07285 -20.9716
RightLeg  54.1177 -2.62351 -3.23028
RightFoot  13.8871 -0.0376688 0.68682
RightToes  -35.3117 -0.182156 -0.287137
Spine  22.5913 0.976576 4.33498
Spine1  35.3856 -0.408052 8.13748
HEad  20.6453 -5.93978 0.0376385
LeftShoulder1  0 -2.42657e-020 -4.95415e-022
LeftArm  -18.8087 -43.8422 -101.765
LeftForeArm  53.519 -12.6665 -2.23734
LeftHand  -0.175196 -10.1077 1.612
RightShoulder  0 2.42657e-020 1.07489e-018
RightArm  -74.7652 46.8351 70.2759
RightForeArm  38.2348 8.54063 1.51011
RightHand  -0.325915 20.1132 -1.46803
LeftUpLeg  -61.9538 0.594922 0.184691
LeftLeg  79.7017 -1.10327 -4.45013
LeftFoot  -26.6741 0.270337 1.14026
LeftToes  9.54719 2.01279e-006 2.21547e-008
231
root  -8.12022 26.1701 -14.9252 35.4771 -68.6182 -19.7769
RightUpLeg  -52.9436 -2.79653 -27.5579
RightLeg  51.9285 2.77439 3.05163
RightFoot  18.2207 -0.472197 3.32141
RightToes  -62.5794 -0.419034 -0.404312
Spine  22.6712 2.46546 3.08335
Spine1  36.4661 2.96264 5.90291
HEad  18.9908 -2.044 -2.60304
LeftShoulder1  0 -2.42657e-020 -4.95415e-022
LeftArm  -24.5175 -39.5157 -97.285
LeftForeArm  48.1522 -15.3459 -2.74728
LeftHand  -0.260973 -9.71809 2.70113
RightShoulder  0 2.42657e-020 1.07489e-018
RightArm  -70.4563 43.4222 69.0079
RightForeArm  31.0479 13.397 2.40224
RightHand  0.0263713 21.7379 0.507503
LeftUpLeg  -59.7386 2.03092 2.89501
LeftLeg  84.7256 -0.0182961 -0.159816
LeftFoot  -30.7635 -0.320976 -1.16672
LeftToes  1.12215 2.01279e-006 2.21547e-008
232
root  -9.70216 25.5899 -16.1685 36.4569 -70.6994 -21.223
RightUpLeg  -52.132 -5.41308 -24.9769
RightLeg  54.5091 5.54495 6.70392
RightFoot  6.79977 -0.158772 3.04929
RightToes  -69.8539 -0.489273 -0.415499
Spine  22.2346 2.69682 2.99947
Spine1  36.7811 4.77451 3.66648
HEad  16.9725 4.36665 -7.12242
LeftShoulder1  0 -2.42657e-020 -4.95415e-022
LeftArm  -31.4573 -35.8703 -92.4146
LeftForeArm  44.7885 -15.8153 -2.84142
LeftHand  -0.229024 -7.91277 2.94312
RightShoulder  0 2.42657e-020 1.07489e-018
RightArm  -62.47 39.503 69.1749
RightForeArm  22.927 20.8194 3.84014
RightHand  0.421863 21.2738 2.61671
LeftUpLeg  -60.3712 3.11602 6.42457
LeftLeg  91.5383 0.0325897 0.687146
LeftFoot  -26.563 -0.431381 -1.82737
LeftToes  -14.4272 2.01279e-006 2.21547e-008
233
root  -10.9868 25.4184 -17.3288 38.1775 -70.5025 -22.3931
RightUpLeg  -53.5379 -12.5668 -19.0266
RightLeg  58.6833 7.43938 10.4037
RightFoot  -0.397166 0.00475833 1.75344
RightToes  -71.2768 -0.503147 -0.416639
Spine  21.646 2.14093 3.58918
Spine1  36.6339 5.381 1.80174
HEad  13.8861 12.5028 -12.4005
LeftShoulder1  0 -2.42657e-020 -4.95415e-022
LeftArm  -37.674 -31.1173 -88.2001
LeftForeArm  38.0954 -17.4832 -3.16974
LeftHand  -0.100586 -6.44629 1.41758
RightShoulder  0 2.42657e-020 1.07489e-018
RightArm  -62.4914 37.1932 69.0913
RightForeArm  12.039 27.6851 5.30156
RightHand  0.992892 22.5787 5.34225
LeftUpLeg  -65.1651 0.86772 12.2987
LeftLeg  99.1725 0.156503 -1.55644
LeftFoot  -12.4835 -0.147623 -1.34968
LeftToes  -35.8745 2.01279e-006 2.21547e-008
234
root  -12.3 25.465 -18.2035 36.9857 -71.953 -21.5806
RightUpLeg  -54.9517 -16.2816 -16.0604
RightLeg  63.6013 7.92482 13.2921
RightFoot  -4.14796 0.00870156 0.617937
RightToes  -70.9925 -0.500373 -0.4142
Spine  21.816 2.09176 3.42705
Spine1  37.4672 6.91656 -0.516603
HEad  10.9788 18.7966 -17.6778
LeftShoulder1  0 -2.42657e-020 -4.95415e-022
LeftArm  -39.9226 -27.551 -85.756
LeftForeArm  31.9659 -18.4591 -3.36513
LeftHand  -0.00868307 -5.38643 -0.185601
RightShoulder  0 2.42657e-020 1.07489e-018
RightArm  -61.7198 36.0502 64.3093
RightForeArm  17.8907 34.4445 6.94555
RightHand  0.455899 22.6245 2.64947
LeftUpLeg  -68.1174 -0.775992 16.3738
LeftLeg  104.162 1.22417 -6.55112
LeftFoot  -7.15877 -0.0557514 -0.891251
LeftToes  -4.93538 2.01279e-006 2.21547e-008
235
root  -13.6517 25.5447 -19.0466 34.2264 -72.9239 -19.3348
RightUpLeg  -54.7022 -16.7044 -14.5667
RightLeg  66.9878 4.70537 9.13447
RightFoot  -7.72538 -0.00935727 0.238983
RightToes  -66.304 -0.45482 -0.411154
Spine  21.6975 2.57628 3.25519
Spine1  37.6255 9.13482 -1.52142
HEad  10.5532 23.0201 -20.9017
LeftShoulder1  0 -2.42657e-020 -4.95415e-022
LeftArm  -38.6952 -24.6802 -85.5549
LeftForeArm  31.2201 -18.4963 -3.37292
LeftHand  0.079883 -5.40793 -2.06391
RightShoulder  0 2.42657e-020 1.07489e-018
RightArm  -68.3599 36.1395 55.1686
RightForeArm  19.1456 37.1277 7.67376
RightHand  1.06164 24.8271 5.19178
LeftUpLeg  -69.4125 0.725251 17.9853
LeftLeg  101.919 1.05162 -7.17863
LeftFoot  -8.50261 -0.0455756 -0.613108
LeftToes  -12.1946 2.01279e-006 2.21547e-008
